<svg xmlns="http://www.w3.org/2000/svg" viewBox="0 0 100 100" width="256" height="256">
  <defs>
    <linearGradient id="bgGrad" x1="0%" y1="0%" x2="100%" y2="100%">
      <stop offset="0%" stop-color="#1e293b" />
      <stop offset="100%" stop-color="#0f172a" />
    </linearGradient>
    
    <linearGradient id="accentGrad" x1="0%" y1="0%" x2="100%" y2="100%">
      <stop offset="0%" stop-color="#38bdf8" />
      <stop offset="100%" stop-color="#3b82f6" />
    </linearGradient>
  </defs>

  <rect x="10" y="10" width="80" height="80" rx="16" fill="url(#bgGrad)" />
  <rect x="10" y="10" width="80" height="80" rx="16" fill="none" stroke="#334155" stroke-width="2" />

  <g stroke="#64748b" stroke-width="6" stroke-linecap="round">
    <line x1="38" y1="30" x2="32" y2="70" />
    <line x1="58" y1="30" x2="52" y2="70" />
    <line x1="25" y1="42" x2="65" y2="42" />
    <line x1="20" y1="58" x2="60" y2="58" />
  </g>

  <g stroke="url(#accentGrad)" stroke-width="3" stroke-linecap="round">
    <line x1="65" y1="42" x2="76" y2="31" />
    <circle cx="76" cy="31" r="5" fill="#38bdf8" />
    
    <line x1="60" y1="58" x2="72" y2="68" />
    <circle cx="72" cy="68" r="4" fill="#38bdf8" />
    
    <line x1="38" y1="30" x2="26" y2="22" />
    <circle cx="26" cy="22" r="4" fill="#38bdf8" />
  </g>

  <g transform="translate(68, 14)" stroke="#10b981" stroke-width="3.5" stroke-linecap="round">
    <circle cx="10" cy="10" r="14" fill="#064e3b" stroke="#047857" stroke-width="2" />
    <line x1="10" y1="4" x2="10" y2="16" />
    <line x1="4" y1="10" x2="16" y2="10" />
  </g>
</svg>
